<?xml version="1.0" encoding="UTF-8" standalone="no"?>
<svg width="28px" height="28px" viewBox="0 0 28 28" version="1.1" xmlns="http://www.w3.org/2000/svg" xmlns:xlink="http://www.w3.org/1999/xlink">
    <!-- Generator: Sketch 3.8.3 (29802) - http://www.bohemiancoding.com/sketch -->
    <title>icon-profile</title>
    <desc>Created with Sketch.</desc>
    <defs>
        <rect id="path-1" x="0" y="0" width="28" height="28" rx="14"></rect>
        <mask id="mask-2" maskContentUnits="userSpaceOnUse" maskUnits="objectBoundingBox" x="0" y="0" width="28" height="28" fill="white">
            <use xlink:href="#path-1"></use>
        </mask>
        <mask id="mask-4" maskContentUnits="userSpaceOnUse" maskUnits="objectBoundingBox" x="0" y="0" width="28" height="28" fill="white">
            <use xlink:href="#path-1"></use>
        </mask>
    </defs>
    <g id="Page-1" stroke="none" stroke-width="1" fill="none" fill-rule="evenodd">
        <g id="of_desktop-copy-69" transform="translate(-889.000000, -436.000000)">
            <g id="icon-profile" transform="translate(889.000000, 436.000000)">
                <mask id="mask-3" fill="white">
                    <use xlink:href="#path-1"></use>
                </mask>
                <g id="Mask" stroke="#B2B2B2" mask="url(#mask-2)" stroke-width="2">
                    <use mask="url(#mask-4)" xlink:href="#path-1"></use>
                </g>
                <path d="M17.0338715,18.3347952 C20.8688064,11.1038777 18.0504237,7.23676717 14.0002051,7.23676717 C9.86984008,7.23676717 7.12107351,11.2524702 10.9665387,18.3347952 C12.2640906,20.7239757 9.56485491,21.2885102 6.82993358,21.9195409 C4.56984528,22.4405898 4.27870535,23.5047228 4.25003986,25.3071383 C4.23814466,26.0811064 4.87892552,26.7092121 5.65308864,26.7092121 C5.65308864,26.7092121 11.151531,29.0000004 14.0002049,29.0000004 C16.7159503,29.0000004 22.3463465,26.7092121 22.3463465,26.7092121 C23.1210946,26.7092121 23.7620705,26.0809114 23.7497852,25.3071383 C23.7215098,23.5047228 23.4303698,22.4405898 21.1700865,21.9195409 C18.3749092,21.27447 15.7731751,20.7099354 17.0338715,18.3347952 Z" id="Shape" fill="#B2B2B2" mask="url(#mask-3)"></path>
            </g>
        </g>
    </g>
</svg>