<svg xmlns="http://www.w3.org/2000/svg" width="26" height="26" viewBox="0 0 26 26">
  <g style="fill:none;stroke-width:1;stroke:none">
    <g fill="#fff">
        <path d="M1.9 24.1L1.9 1.9 5.6 1.9 5.6 0.1 0.1 0.1 0.1 25.9 5.6 25.9 5.6 24.1 1.9 24.1ZM24.1 1.9L24.1 24.1 20.4 24.1 20.4 25.9 25.9 25.9 25.9 0.1 20.4 0.1 20.4 1.9 24.1 1.9Z"/>
        <path d="M13.1 16.8L13.1 16.8C15.1 16.8 16.8 15.1 16.8 13.1 16.8 11 15.1 9.4 13.1 9.4 11 9.4 9.4 11 9.4 13.1 9.4 15.1 11 16.8 13.1 16.8L13.1 16.8ZM13.1 18.6L13.1 18.6C10 18.6 7.5 16.1 7.5 13.1 7.5 10 10 7.5 13.1 7.5 16.1 7.5 18.6 10 18.6 13.1 18.6 16.1 16.1 18.6 13.1 18.6L13.1 18.6Z"/>
    </g>
  </g>
</svg>